<svg viewBox="0 0 192 192" fill="none" xmlns="http://www.w3.org/2000/svg">
<rect width="192" height="192" rx="38.4" fill="#1f2937"/>
<path d="M72 144V76.2C72 73.8804 73.8804 72 76.2 72H113.4C115.719 72 117.6 73.8804 117.6 76.2V96M120 72C120 65.3726 114.627 60 108 60C101.373 60 96 65.3726 96 72M72 144C72 150.627 66.6274 156 60 156C53.3726 156 48 150.627 48 144C48 137.373 53.3726 132 60 132C66.6274 132 72 137.373 72 144ZM120 120C120 126.627 114.627 132 108 132C101.373 132 96 126.627 96 120C96 113.373 101.373 108 108 108C114.627 108 120 113.373 120 120Z" stroke="#A78BFA" stroke-width="8" stroke-linecap="round" stroke-linejoin="round"/>
</svg>
